<svg xmlns="http://www.w3.org/2000/svg" width="256" height="256" data-name="Layer 1" viewBox="0 0 256 256"><path fill="#49021f" d="M222,70.44V220a23,23,0,0,1-23,23H57a23,23,0,0,1-23-23V36A23,23,0,0,1,57,13H164.51a23,23,0,0,1,16.27,6.74l34.48,34.44A23,23,0,0,1,222,70.44Z"/><path fill="#f36" d="M166.06,18a13.94,13.94,0,0,1,9.9,4.1L211.9,58a13.94,13.94,0,0,1,4.1,9.9V224a14,14,0,0,1-14,14H54a14,14,0,0,1-14-14V32A14,14,0,0,1,54,18H166.06m0-10H54A24,24,0,0,0,30,32V224a24,24,0,0,0,24,24H202a24,24,0,0,0,24-24V67.94a24,24,0,0,0-7-17L183,15a24,24,0,0,0-17-7Z"/><path fill="#fff" d="M82 178.43v35.08c0 .33-.14.49-.43.49H76.43c-.29 0-.43-.16-.43-.49V178.43a.38.38 0 01.43-.43h5.19C81.87 178 82 178.14 82 178.43zM93.59 214H88.41c-.27 0-.41-.16-.41-.49V178.38c0-.25.12-.38.36-.38h6.91a.66.66 0 01.61.38L108 206V178.44c0-.29.15-.44.46-.44h5.13c.27 0 .41.15.41.44v35.07c0 .33-.17.49-.51.49h-6.4a.59.59 0 01-.61-.38C105.93 212.35 94 186 94 186v27.56C94 213.85 93.86 214 93.59 214zM120 213.4V178.54a.38.38 0 01.32-.43c3.89-.07 7.11-.11 10.13-.11q8.58 0 13.07 4.82T148 195.51a22.38 22.38 0 01-1.16 7.46 16 16 0 01-3 5.31 15.4 15.4 0 01-4.32 3.36 18.6 18.6 0 01-5 1.84 24.37 24.37 0 01-5.1.52c-3.39 0-6.28 0-9.16-.11C120.11 213.89 120 213.73 120 213.4zM126 183V209c1.74.07 2.65.11 3.8.11 3.57 0 7.16-1.08 9.18-3.23s3-5.54 3-10.17q0-6.49-2.83-9.62c-1.89-2.08-5.34-3.12-8.72-3.12C128.29 182.93 127.16 183 126 183zM152 213.4V178.54a.38.38 0 01.32-.43c3.89-.07 7.11-.11 10.13-.11q8.58 0 13.07 4.82T180 195.51a22.38 22.38 0 01-1.16 7.46 16 16 0 01-3 5.31 15.4 15.4 0 01-4.32 3.36 18.6 18.6 0 01-5 1.84 24.37 24.37 0 01-5.1.52c-3.39 0-6.28 0-9.16-.11C152.11 213.89 152 213.73 152 213.4zM158 183V209c1.74.07 2.65.11 3.8.11 3.57 0 7.16-1.08 9.18-3.23s3-5.54 3-10.17q0-6.49-2.83-9.62c-1.89-2.08-5.34-3.12-8.72-3.12C160.29 182.93 159.16 183 158 183z"/><path fill="#f36" d="M104 59v77.87c0 .75-.33 1.13-1 1.13H91c-.67 0-1-.38-1-1.13V59a.88.88 0 011-1h12.12C103.71 58 104 58.33 104 59zM142.42 140c-8.7 0-15.4-2.47-20.61-7.4S114 120.4 114 110.77q0-13.14 8.39-21.6A30.05 30.05 0 01144.52 80a22.25 22.25 0 015.48.59V54.7a.62.62 0 01.7-.7h12.72c.38 0 .58.23.58.7v71.57c0 3 1.75 5.55 2 7.74a.93.93 0 01-.58 1.06A53.82 53.82 0 01142.42 140zM150 128.38V92.11c-.49-.86-3.07-2.11-5.71-2.11a14.72 14.72 0 00-11.55 5.14c-3 3.36-4.74 8.86-4.74 15 0 6.57 1.77 11.57 4.69 14.69A14.87 14.87 0 00143.82 130C146.62 130 149.36 129.08 150 128.38z"/></svg>