<svg xmlns="http://www.w3.org/2000/svg" enable-background="new 0 0 256 256" viewBox="0 0 256 256"><path fill="#99f" d="M105.7,24.1H28c-11,0-20,9-20,20v20h146L119.9,30C116.1,26.3,111,24.1,105.7,24.1z"/><path fill="#00005b" d="M228,232.1H28c-11,0-20-9-20-20v-152h220c11,0,20,9,20,20v132C248,223.2,239,232.1,228,232.1z"/><path fill="#99f" d="M114.6 154H87.8l-6.9 19c-.1.7-.5 1-1.3 1H67c-.8 0-1.1-.4-.9-1.2l24.3-71.3c.7-2.2 1-4.4 1-6.7 0-.5.2-.7.8-.7h17.6c.5 0 .8.2.9.6l27.2 78.3c.2.7 0 1.1-.6 1.1h-14.1c-.5 0-1-.3-1.3-.7L114.6 154zM90.8 140h20.9c-.5-1.2-9.9-31.1-10.6-33.7H101L90.8 140zM176.4 148.6h-21.8c.1 5.1 1.5 9.1 4.3 12 2.8 2.9 6.9 4.4 12.5 4.4 4.7.1 9.5-.8 13.9-2.6.5-.3.7-.2.7.5v8.7c0 .6-.3 1.1-.7 1.4-4.5 2.1-10.4 3.1-17 3.1-9.8 0-16.9-2.8-21.5-8.4s-6.8-12.6-6.8-21c0-8.7 2.4-16 7.1-21.9 4.8-5.9 11.3-8.8 19.6-8.8 7.9 0 13.7 2.4 17.6 7.2 3.8 4.8 5.9 10.8 5.8 17 .1 2.3-.1 4.6-.5 6.9 0 .6-.4 1-1 1C184.5 148.5 180.5 148.7 176.4 148.6zM154.6 139.4h15.7c1.9.1 3.9 0 5.8-.2.1-.5.1-1.1.1-1.7 0-2.9-.8-5.7-2.4-8.1-1.6-2.4-4.2-3.6-7.7-3.6-3.2-.2-6.2 1.3-8.1 3.8C156.1 132.5 154.9 135.9 154.6 139.4L154.6 139.4z"/></svg>