<svg xmlns="http://www.w3.org/2000/svg" width="256" height="256" data-name="Layer 1" viewBox="0 0 256 256"><g data-name="Photo Surface"><rect width="240" height="232" x="8" y="12" fill="#370000" data-name="Outline no shadow" rx="42"/></g><path fill="#fa0f00" d="M180,76H76V180H180Zm-22,82H98V98h60Z"/><path fill="#fabfbc" d="M147.8,54,54,108.2l22,38.07v-8L59.48,109.67l86.85-50.19,50.19,86.85-86.85,50.19L100.12,180H95.49l12.71,22L202,147.8Z"/><path fill="#fabfbc" d="M180,95.51v4.63l16.53,9.56L146.3,196.52,59.48,146.3,109.7,59.48,138.27,76h8l-38-22L54,147.76,147.76,202,202,108.24Z"/></svg>