<svg xmlns="http://www.w3.org/2000/svg" enable-background="new 0 0 256 256" viewBox="0 0 256 256"><path fill="#ff61f6" d="M105.7,24.1H28c-11,0-20,9-20,20v20h146L119.8,30C116.1,26.3,111,24.1,105.7,24.1z"/><path fill="#470137" d="M228,232.1H28c-11,0-20-9-20-20v-152h220c11,0,20,9,20,20v132C248,223.2,239,232.1,228,232.1z"/><path fill="#ff61f6" d="M52.8 174.5V96.8c-.1-.5.3-.9.8-1 0 0 0 0 .1 0 1.1-.1 2.9-.2 5.1-.2 2.3-.1 4.9-.1 7.9-.2 3-.1 6.2-.1 9.6-.1 9.3 0 17 1.7 23.1 5 5.8 3.1 10.6 7.9 13.7 13.7 3 5.8 4.6 12.5 4.6 20.1.1 5.3-.7 10.5-2.4 15.6-1.4 4.2-3.6 8.2-6.5 11.7-2.7 3.2-5.8 5.9-9.3 8.1-3.4 2.1-7.2 3.7-11.2 4.8-3.8 1-7.7 1.5-11.7 1.5H68c-3 0-5.9 0-8.5-.1-2.7-.1-4.6-.1-5.9-.2C53.1 175.7 52.8 175.2 52.8 174.5zM68.8 110.4V161c.8 0 1.6 0 2.4.1.7.1 1.4.1 2.1.2.8.1 1.6.1 2.5.1 3.5.1 7-.5 10.3-1.7 3-1.1 5.7-2.8 8-5.2 2.3-2.4 4-5.3 5.1-8.4 1.2-3.6 1.8-7.5 1.8-11.4.1-3.6-.5-7.3-1.7-10.7-2.1-5.9-6.9-10.5-13-12.3-3.3-1-6.6-1.5-10-1.4-1.5 0-2.8 0-3.9.1C71.3 110.3 70.1 110.4 68.8 110.4L68.8 110.4zM185.6 175.7h-14.2c-.3.1-.7-.1-.9-.3-.2-.3-.4-.6-.5-.9-1.4-6.1-2.7-11.5-3.6-16.2-1-4.7-1.8-8.6-2.4-11.9-.6-3.3-1.1-6-1.6-8.3-.4-2.3-.8-4.2-1-5.8h-.1c-.8 3.3-1.4 6.6-2.1 9.7-.6 3.1-1.4 6.3-2.1 9.5s-1.6 6.7-2.6 10.5c-.9 3.8-2 8-3.1 12.4-.2.8-.5 1.2-1.2 1.2H136c-.4.1-.8-.1-1.1-.2-.2-.2-.4-.5-.5-.8L119.6 116c-.2-.7.1-1 .9-1h14.3c.7 0 1.1.2 1.1.8 1.5 6.7 2.8 12.4 3.8 17.3 1 4.9 1.8 9 2.4 12.4.5 3.4 1.1 6.2 1.4 8.3.4 2.1.7 3.9.9 5.3h.2c.2-1.2.3-2.4.5-3.6.3-1.4.7-3.3 1.1-5.7.5-2.4 1-5.1 1.7-8.3.7-3.2 1.4-6.8 2.4-11.1.8-4.2 2-9 3.5-14.3 0-.3.2-.7.3-1 .1-.2.4-.2.8-.2h14.9c.5 0 .7.3.8.8 1.3 5.5 2.4 10.4 3.3 14.6.8 4.2 1.6 7.9 2.3 11.2.6 3.2 1.1 6 1.4 8.3.3 2.4.7 4.2 1 5.8.2 1.3.5 2.6.5 3.9h.2c.4-1.5.7-3.3 1-5.4.3-2 .7-4.3 1.2-6.9.5-2.6 1-5.4 1.6-8.5.5-3.1 1.3-6.5 2.1-10.4.8-3.8 1.7-8 2.8-12.4.2-.7.5-1 1-1h13.3c.7 0 .9.4.8 1.1l-16.4 58.5c-.1.3-.2.6-.5.8C186.3 175.6 186 175.8 185.6 175.7z"/></svg>