<svg xmlns="http://www.w3.org/2000/svg" width="256" height="256" data-name="Layer 1" viewBox="0 0 256 256"><g data-name="Photo Surface"><rect width="240" height="232" x="8" y="12" fill="#370000" data-name="Outline no shadow" rx="42"/></g><path fill="#fa0f00" d="M84.35 186Q68.18 186 57 179.68a2.54 2.54 0 01-1-2.27V161.54c0-1.08.43-1.3 1.28-.65q13.29 9.39 27.55 9.4 9 0 13.22-3.65a11.72 11.72 0 004.25-9.31A13.26 13.26 0 0099 148.25q-3.29-3.72-12.41-7.94l-6.09-2.91q-12.83-6.15-18.42-13.53T56.64 106a27.92 27.92 0 019.29-21.38Q75.22 76 92.36 76q14.43 0 22.91 4.54c.64.21 1 .86 1 1.94V97.22a.83.83 0 01-.32.73c-.21.16-.53.14-1-.08A41.47 41.47 0 0092 91.39c-5.76 0-10 1.32-12.57 4A12.14 12.14 0 0075.54 104a12.75 12.75 0 003.21 8.58q3.19 3.73 12.17 7.94l6.41 2.92q14.1 6.65 19.38 14A29.33 29.33 0 01122 155.06q0 14.25-10.17 22.6T84.35 186zM163.75 104q17.5 0 26.88 10.65T200 141.91q0 19.89-11.93 30.54a41.09 41.09 0 01-28.34 10.66 27.77 27.77 0 01-7.73-.79V213q0 1.26-1.08 1.41c-5 .42-11.64.94-17.84 1.57a1 1 0 01-1.08-1.1V120.29c.12-4.91-1.69-4.86-2-9.24 0-.42.15-.68.46-.78C143.17 106.09 155.59 104 163.75 104zm-1.85 14.1a29.78 29.78 0 00-9.9 1.72V167.6c2.05 1.46 5.25 2.19 9 2.19 5.47 0 9.35-2.29 13.22-6.89S180 151.67 180 143q0-12.06-5.11-18.48C171.48 120.24 167.68 118.1 161.9 118.1z"/></svg>