<svg xmlns="http://www.w3.org/2000/svg" enable-background="new 0 0 256 256" viewBox="0 0 256 256"><path fill="#fa0f00" d="M105.7,24.1H28c-11,0-20,9-20,20v20h146L119.8,30C116.1,26.3,111,24.1,105.7,24.1z"/><path fill="#370000" d="M228,232.1H28c-11,0-20-9-20-20v-152h220c11,0,20,9,20,20v132C248,223.2,239,232.1,228,232.1z"/><path fill="#fa0f00" d="M100.2 164.1c-6.9 0-12.7-1.3-17.4-4-.4-.3-.7-.9-.6-1.4v-10.1c0-.7.3-.8.8-.4 5.6 4 11.5 6 17.6 6 3.8 0 6.6-.8 8.4-2.3 1.8-1.5 2.8-3.6 2.7-5.9.1-2.1-.7-4.2-2.1-5.8-1.4-1.6-4-3.3-7.9-5.1l-3.9-1.9c-5.4-2.6-9.4-5.5-11.7-8.6-2.4-3.1-3.5-6.9-3.5-11.4-.1-5.2 2.1-10.2 5.9-13.6 3.9-3.7 9.6-5.5 16.8-5.5 6.1 0 11 1 14.6 2.9.4.1.6.5.6 1.2v9.4c0 .2-.1.4-.2.5-.1.1-.3.1-.6-.1-4.4-2.8-9.4-4.2-14.6-4.1-3.7 0-6.4.8-8 2.5-1.5 1.4-2.4 3.4-2.5 5.5 0 2 .7 4 2 5.5 1.4 1.6 3.9 3.3 7.8 5.1l4.1 1.9c6 2.8 10.1 5.8 12.3 8.9 2.3 3.3 3.5 7.2 3.4 11.2 0 6.1-2.2 10.9-6.5 14.4C113.4 162.3 107.5 164.1 100.2 164.1zM150.8 111.8c7.4 0 13.1 2.3 17.1 6.8 4 4.5 6 10.3 6 17.4 0 8.4-2.5 14.9-7.6 19.5-4.9 4.5-11.4 6.9-18.1 6.8-1.7.1-3.3-.1-4.9-.5v19.5c0 .5-.2.8-.7.9-3.2.3-7.4.6-11.4 1-.4 0-.7-.2-.7-.6 0 0 0-.1 0-.1v-60.3c.1-3.1-1.1-3.1-1.3-5.9 0-.3.1-.4.3-.5C137.7 113.2 145.6 111.8 150.8 111.8zM149.6 120.8c-2.1 0-4.3.4-6.3 1.1v30.4c1.3.9 3.3 1.4 5.7 1.4 3.5 0 6-1.5 8.4-4.4 2.5-2.9 3.7-7.2 3.7-12.7 0-5.1-1.1-9-3.3-11.8C155.7 122.2 153.3 120.8 149.6 120.8z"/></svg>