<svg xmlns="http://www.w3.org/2000/svg" width="256" height="256" data-name="Layer 1" viewBox="0 0 256 256"><g data-name="Photo Surface"><rect width="240" height="232" x="8" y="12" fill="#370000" data-name="Outline no shadow" rx="42"/></g><path fill="#fa0f00" d="M172,102l-3,3,13.93,13.93a10,10,0,0,1,0,14.14l-49.86,49.86a10,10,0,0,1-14.14,0L105,169l-3,3,32,32,70-70ZM73.07,122.93l49.86-49.86a10,10,0,0,1,14.14,0L151,87l3-3L122,52,52,122l32,32,3-3L73.07,137.07A10,10,0,0,1,73.07,122.93Z"/><polygon fill="#fabfbc" points="170 106 102 106 102 102 172 102 170 106"/><polygon fill="#fabfbc" points="154 154 84 154 86 150 154 150 154 154"/><rect width="52" height="4" x="102" y="138" fill="#fabfbc"/><rect width="52" height="4" x="102" y="126" fill="#fabfbc"/><rect width="52" height="4" x="102" y="114" fill="#fabfbc"/></svg>