<svg xmlns="http://www.w3.org/2000/svg" width="256" height="256" data-name="Layer 1" viewBox="0 0 256 256"><g data-name="Photo Surface"><rect width="240" height="232" x="8" y="12" fill="#00005b" data-name="Outline no shadow" rx="42"/></g><path fill="#99f" d="M66.63 184H49.2q-1.2 0-1.2-1.35V73.86c0-1 .34-1.52 1-1.52C54.28 72.11 66 72 82.6 72q19.68 0 30.65 8.29c7.3 5.53 10.52 13.42 10.52 23.69 0 7.22-1.59 13.31-5.64 18.27a35.59 35.59 0 01-16 11q4.78 5.76 17.21 23.86c8.27 12.07 13.35 20.47 16.09 25.21.92 1.13.74 1.69-.51 1.69h-21.4a2.79 2.79 0 01-2.23-1c-1.37-2-3.23-5.56-6.42-10.58s-6.74-10.71-10.62-17.09S87.62 144.52 86 142c-1.37-2.25-3.25-2.84-5.65-2.84H68v43.45A1.2 1.2 0 0166.63 184zM68 122.91H82.08c7.08 0 12.39-1.34 15.93-4.72s5.31-7.84 5.31-13.37-1.83-10-5.48-13-8.91-4.56-15.76-4.56c-6.5 0-11.58.11-14.08.34zM206 105.16V168c0 8.75.25 10.62 1.95 14.84.1.44.05.75-.17.91a2 2 0 01-1.16.25H189.21a1.53 1.53 0 01-1.66-1 17.74 17.74 0 01-1-4.78Q178.1 186 164.68 186 138 186 138 155.91V105.32a1.17 1.17 0 011.33-1.32h17.51c.77 0 1.16.44 1.16 1.32v49.27c0 10.58 4.53 15.41 13.14 15.41 5.64 0 11.32-1.58 14.86-5.66v-59a1.17 1.17 0 011.33-1.32h17.34C205.56 104 206 104.39 206 105.16z"/></svg>