<svg xmlns="http://www.w3.org/2000/svg" enable-background="new 0 0 256 256" viewBox="0 0 256 256"><path fill="#7b7b7b" d="M105.7,24.1H28c-11,0-20,9-20,20v20h146L119.9,30C116.1,26.3,111,24.1,105.7,24.1z"/><path fill="#000b1d" d="M228,232.1H28c-11,0-20-9-20-20v-152h220c11,0,20,9,20,20v132C248,223.2,239,232.1,228,232.1z"/><path fill="#fff" d="M74.6 175l-.1-77.6c0-.8.2-1.1.8-1.2 1.4-.1 3.5-.2 6.4-.2 2.9-.1 5.6-.1 9-.2 3.3-.1 6.4-.1 9.2-.1 6.7 0 12.2.5 16.1 2 3.9 1.4 7 3.3 9.1 5.5 2.1 2 3.6 4.4 4.5 7.1.7 2.2 1.1 4.4 1.1 6.8 0 2.4-.5 4.9-1.4 7.1-.7 1.9-1.7 3.6-3 5.2-.9 1.2-2.1 2.2-3.3 3 1.7.9 3.3 2.1 4.9 3.3 1.9 1.7 3.5 3.8 4.6 6.1 1.4 2.9 2.2 6.1 2.1 9.3 0 4.7-1.4 9.3-4.3 13.1-2.7 3.7-6.6 6.7-11.8 8.7-5.8 2.3-12 3.4-18.3 3.3h-8c-2.6 0-4.7 0-6.9-.1-2.1-.1-4-.1-5.6-.2-1.6-.1-3-.1-4.1-.1C74.8 176 74.6 175.6 74.6 175zM91.1 110.2l.1 16.9h8c2.2 0 4.3.1 6.5.2 1.5 0 3 .2 4.6.5 1.1-.9 2-2.1 2.7-3.3.8-1.4 1.2-3 1.2-4.7 0-2-.6-3.9-1.8-5.6-1.2-1.4-2.8-2.6-4.6-3.1-2.5-.8-5.1-1.1-7.7-1h-3.6c-1.1 0-1.7 0-2.6.1C93 110.2 92 110.2 91.1 110.2zM91.1 141.4v20.4c1.4.1 2.4.2 3.9.2 1.4.1 3 .1 5 .1 3 .1 6-.3 8.9-1.1 2.2-.5 4.3-1.7 5.8-3.4 1.4-1.6 2.3-3.6 2.4-5.8-.1-2.1-.8-4.1-2.1-5.8-1.1-1.6-3-3-5.8-3.7-1.1-.3-2.2-.5-3.3-.6-1.5-.2-3-.2-4.5-.2H91.1zM145.3 114.9h13.3c.8 0 1.4.5 1.6 1.2.3.5.5 1.1.6 1.7.2.8.3 1.6.4 2.4.1.8.2 2.1.2 3 2.3-2.7 5-5.1 8.1-6.8 3.3-1.8 6.8-2.3 11-2.3.5-.1 1 .3 1.1.8 0 .1 0 .2 0 .3v14.6c0 .6-.4.8-1.2.8-2.6-.2-5.2 0-7.7.5-2.2.5-4.3 1.1-6.4 2.1-1.7.7-3.2 1.6-4.5 2.8v38.5c0 .8-.3 1.1-1 1.1h-14.4c-.6.1-1.1-.3-1.2-.9 0-.1 0-.2 0-.3v-41.8c0-1.8 0-3.7-.1-5.7-.1-2-.1-3.9-.2-5.9-.1-1.7-.2-3.6-.5-5.3-.1-.4.2-.8.5-.8C145 114.9 145.1 114.9 145.3 114.9z"/></svg>