<svg xmlns="http://www.w3.org/2000/svg" width="256" height="256" data-name="Layer 1" viewBox="0 0 256 256"><path fill="#00005b" d="M222,70.44V220a23,23,0,0,1-23,23H57a23,23,0,0,1-23-23V36A23,23,0,0,1,57,13H164.51a23,23,0,0,1,16.27,6.74l34.48,34.44A23,23,0,0,1,222,70.44Z"/><path fill="#99f" d="M166.06,18a13.94,13.94,0,0,1,9.9,4.1L211.9,58a13.94,13.94,0,0,1,4.1,9.9V224a14,14,0,0,1-14,14H54a14,14,0,0,1-14-14V32A14,14,0,0,1,54,18H166.06m0-10H54A24,24,0,0,0,30,32V224a24,24,0,0,0,24,24H202a24,24,0,0,0,24-24V67.94a24,24,0,0,0-7-17L183,15a24,24,0,0,0-17-7Z"/><g data-name="Outlined Mnemonics Logos"><path fill="#99f" d="M110.49 118.92H82.11l-5.83 17.9a1.45 1.45 0 01-1.47 1.11H60.44c-.82 0-1.11-.46-.86-1.36L84.25 66.18c.24-.74.49-1.4.73-2.34a25.94 25.94 0 00.5-5 .76.76 0 01.64-.86h19.75c.57 0 .9.2 1 .61l27.78 78.08c.25.82 0 1.23-.74 1.23h-16a1.14 1.14 0 01-1.22-.86zM86.58 103.77H106c-.49-1.64-1.07-3.48-1.72-5.53s-1.35-4.24-2.09-6.57l-2.21-7c-.74-2.33-1.41-4.58-2-6.75s-1.16-4.16-1.65-6h-.13a98 98 0 01-2.58 9.83l-3.5 11.3Q88.3 98.86 86.58 103.77zM143.23 136.76V91.48c0-1.39 0-3-.06-4.67s-.11-3.35-.19-4.91-.16-3-.24-3.9a.74.74 0 01.12-.74 1 1 0 01.74-.24h12.26a2.76 2.76 0 011.23.24 1.14 1.14 0 01.61.86l.55 1.66a12.36 12.36 0 01.43 2.49 24.7 24.7 0 018.11-4.73A27.77 27.77 0 01176 76a23.42 23.42 0 017.19 1.16 18.16 18.16 0 0111.61 11.3c1.22 3.16 1.71 7.23 1.71 12.22v36.07c0 .73-.33 1.1-1 1.1l-14.35.13a1.1 1.1 0 01-1.23-.92 1.61 1.61 0 010-.31V102.55a16.91 16.91 0 00-1.48-6.65 8.8 8.8 0 00-3.13-3.8 9.24 9.24 0 00-5.22-1.35 15.21 15.21 0 00-5.78 1 14.45 14.45 0 00-4.54 2.89v42.08c0 .73-.33 1.1-1 1.1H144.33a1 1 0 01-1.1-.83A1.22 1.22 0 01143.23 136.76z"/></g><path fill="#fff" d="M157.62,204H146.44l-2.89,9.54a.46.46,0,0,1-.52.44h-5.25c-.35,0-.47-.18-.37-.55l10.13-32.07a9.92,9.92,0,0,0,.42-3,.29.29,0,0,1,.32-.33h7.35a.34.34,0,0,1,.37.28l11.33,35.18c.11.33,0,.49-.26.49h-5.88a.53.53,0,0,1-.52-.33Zm-9.92-6h8.72c-.21.07-4.13-13.31-4.41-14.44H152C151.57,185.45,150.15,190.54,147.7,198Z"/><polygon fill="#fff" points="88.62 178.08 108.62 178 109.62 184 94.62 184 94.62 193 107.62 193 107.62 200 94.62 200 94.62 214 88.62 214 88.62 178.08"/><path fill="#fff" d="M119.68,208c5.73,0,15.94,0,15.94,0l-2,6h-20V178h6.06Z"/></svg>