<svg xmlns="http://www.w3.org/2000/svg" enable-background="new 0 0 256 256" viewBox="0 0 256 256"><path fill="#000b1d" d="M50.5,12l155,1C229,13,248,32,248,55.5v146c0,23.5-19,42.5-42.5,42.5l-155-1C27,243,8,224,8,200.5v-145
		C8,32,27,12,50.5,12z"/><path fill="#fff" d="M97.2 177c-5.5.1-11-.5-16.3-1.5-4.2-.8-8.4-2.1-12.3-3.9-.9-.4-1.3-1.3-1.3-2.7v-19.2c0-.3.1-.7.4-.9s.7-.1 1 .1c4.5 2.8 9.3 4.9 14.3 6.3 4.8 1.4 9.8 2.1 14.8 2.1 6.1 0 10.5-.9 13.1-2.8 2.4-1.5 3.9-4.1 3.9-7 0-1.7-.4-3.4-1.3-4.9-1.2-1.7-2.7-3.2-4.5-4.3-2.8-1.7-5.8-3.2-8.9-4.3l-8.1-3.4c-6.5-2.8-11.7-5.8-15.4-8.9-3.4-2.7-6-6.2-7.6-10.2-1.4-3.8-2.1-7.7-2.1-11.8-.2-11.6 6.6-22.3 17.2-27 5.7-2.7 12.8-4.1 21.3-4.1 4.8 0 9.6.3 14.4 1 3.7.4 7.3 1.5 10.7 3.1.7.4 1.2 1.2 1.1 2.1V93c0 .3-.2.5-.4.7-.3.3-.6.2-1-.1-3.6-1.8-7.4-3.2-11.3-4-4.4-1-8.9-1.5-13.4-1.4-2.7 0-5.3.2-7.9.8-1.8.4-3.6 1.1-5.2 2-1.3.7-2.3 1.8-3 3.1-.6 1.2-1 2.5-1 3.8 0 1.6.5 3.3 1.4 4.6 1.3 1.7 3 3 4.8 4 3 1.7 6.1 3.3 9.3 4.7l6 2.3c7.1 2.9 12.6 6 16.6 9.3 3.6 2.8 6.5 6.5 8.4 10.6 1.6 3.9 2.4 8.1 2.4 12.3.1 6-1.7 11.8-5.1 16.7-3.6 4.9-8.5 8.7-14.1 11C112.5 175.7 105.4 177 97.2 177zM191.9 159.4v13.2c0 1.2-.4 1.9-1.3 2.1-2.1.7-4.3 1.2-6.4 1.6-2.6.5-5.1.7-7.7.6-7 0-12.5-1.8-16.4-5.5s-6-9.5-6-17.5v-40.1h-9.7c-.9 0-1.3-.5-1.3-1.4l.1-15.9c0-.9.5-1.3 1.4-1.3h9.7c.1-1.8.1-3.8.3-6.2s.4-4.8.6-7.2.5-4.4.7-5.9c.1-.3.3-.6.5-.9s.5-.5.8-.6l19.2-2.4c.3-.1.5-.1.8 0 .2.1.3.4.3 1-.2 2.5-.4 5.8-.5 10.1-.1 4.2-.1 8.2-.2 12.2H191c.6 0 1 .4 1 1.3l-.1 16.2c.1.5-.3 1-.8 1.1h-14.2v34.7c0 3.6.4 6.3 1.6 7.8s3.5 2.3 6.8 2.3c1 0 1.9 0 2.7-.1s1.7-.1 2.6-.2c.3-.1.6-.1.9.1C191.8 158.6 191.9 158.9 191.9 159.4z"/></svg>