<svg xmlns="http://www.w3.org/2000/svg" width="256" height="256" data-name="Layer 1" viewBox="0 0 256 256"><path fill="#00005b" d="M224,71.44V221a23,23,0,0,1-23,23H59a23,23,0,0,1-23-23V37A23,23,0,0,1,59,14H166.51a23,23,0,0,1,16.27,6.74l34.48,34.44A23,23,0,0,1,224,71.44Z"/><path fill="#99f" d="M166.06,18a13.94,13.94,0,0,1,9.9,4.1L211.9,58a13.94,13.94,0,0,1,4.1,9.9V224a14,14,0,0,1-14,14H54a14,14,0,0,1-14-14V32A14,14,0,0,1,54,18H166.06m0-10H54A24,24,0,0,0,30,32V224a24,24,0,0,0,24,24H202a24,24,0,0,0,24-24V67.94a24,24,0,0,0-7-17L183,15a24,24,0,0,0-17-7Z"/><path fill="#99f" d="M80 137.2V59.43a.7.7 0 01.79-.8C86.48 58.48 93.21 58 102 58c10.35 0 17.93 2.19 22.77 6.91A23.52 23.52 0 01132 82.4q0 12.91-9 19.2t-22.6 6.29L94 108v29.09a.8.8 0 01-.9.91H80.9C80.3 138 80 137.73 80 137.2zm14-68V97s3.26.14 7.08.14q7.53 0 12.2-3.37t4.67-11q0-6.73-4.11-10.4T102 68.69c-1.27 0-2.53 0-3.76 0s-2.25.06-3 .06S94 68.8 94 69.16zM142.73 80h12.41a1.32 1.32 0 011.31 1A22.48 22.48 0 01158 88c4.58-5.93 9.66-10 17.17-10a.74.74 0 01.83.83V93.16c0 .63-.32.91-.95.83-6.88-.4-11.76.22-15.71 4.17a3.72 3.72 0 00-1.34 2.7v36.31c0 .55-.32.83-.95.83h-12c-.71 0-1.07-.32-1.07-.95V97c0-9.58-1.27-12.24-2-16.17C141.94 80.28 142.17 80 142.73 80z"/><path fill="#fff" d="M78 213.62V178.49c0-.25.11-.38.33-.38q3.47-.11 9.75-.11c4.76 0 8.28 1.1 10.53 3.29a11 11 0 013.39 8.24q0 6-4.14 9A15.71 15.71 0 0188 202H85v11.62c0 .25-.15.38-.43.38H78.38A.34.34 0 0178 213.62zM85 183v14h3a8.49 8.49 0 005.28-2.06q2.16-1.6 2.16-5.3a6.34 6.34 0 00-1.92-4.92A7.75 7.75 0 0088.08 183 29.2 29.2 0 0085 183zM111.56 214h-5.18c-.25 0-.38-.14-.38-.43v-35c0-.33.11-.49.33-.49 1.68-.07 5.16-.11 10.46-.11q6.28 0 9.8 2.67a10 10 0 011.56 13.48 11.45 11.45 0 01-5.12 3.54q1.53 1.84 5.5 7.66t5.29 8.11c.29.36.23.54-.17.54h-6.84a.86.86 0 01-.71-.33c-.44-.65-1.17-1.78-2.19-3.4s-2.16-3.44-3.4-5.49-2.12-3.47-2.63-4.27a2 2 0 00-1.81-1.08H112v14.14A.38.38 0 01111.56 214zm.44-19.46l4.62-.06a7.1 7.1 0 005.09-1.63 5.66 5.66 0 001.7-4.3 5.16 5.16 0 00-1.75-4.19 7.65 7.65 0 00-5-1.47 39.8 39.8 0 00-4.62.18z"/><path fill="#fff" d="M148.05 178q7.35 0 11.62 5T164 195.76q0 8.64-4.36 13.44T148 214q-7.41 0-11.68-4.82T132 195.92q0-8.22 4.41-13.07A15 15 0 01148.05 178zm-9.2 17.92q0 6.09 2.41 9.7a7.8 7.8 0 006.9 3.61 7.52 7.52 0 006.61-3.45q2.32-3.45 2.33-9.91 0-6.1-2.47-9.6a8.13 8.13 0 00-13.29-.11Q138.85 189.57 138.85 195.92zM172 204.76V178.44c0-.25.14-.37.42-.37h5.21c.25 0 .37.1.37.31v25.9c0 7.86-3.39 11.72-10.18 11.72a12 12 0 01-3.45-.42c-.25-.07-.37-.28-.37-.64v-4.42c0-.28.14-.39.42-.32a10 10 0 002.71.37 5.6 5.6 0 003.86-1.24C171.73 208.5 172 207 172 204.76z"/></svg>