<svg xmlns="http://www.w3.org/2000/svg" enable-background="new 0 0 256 256" viewBox="0 0 256 256"><path fill="#99f" d="M105.7,24.1H28c-11,0-20,9-20,20v20h146L119.8,30C116.1,26.3,111,24.1,105.7,24.1z"/><path fill="#00005b" d="M228,232.1H28c-11,0-20-9-20-20v-152h220c11,0,20,9,20,20v132C248,223.2,239,232.1,228,232.1z"/><path fill="#99f" d="M80 175.2V97.4c-.1-.4.2-.7.6-.8.1 0 .1 0 .2 0C86.5 96.5 93.2 96 102 96c10.3 0 17.9 2.2 22.8 6.9 4.8 4.6 7.4 10.9 7.2 17.5 0 8.6-3 15-9 19.2s-13.5 6.3-22.6 6.3L94 146v29.1c.1.4-.2.8-.7.9-.1 0-.2 0-.2 0H80.9C80.3 176 80 175.7 80 175.2zM94 107.2V135c0 0 3.3.1 7.1.1 5 0 9.1-1.1 12.2-3.4 3.1-2.2 4.7-5.9 4.7-11 0-4.5-1.4-8-4.1-10.4s-6.7-3.7-11.8-3.7c-1.3 0-2.5 0-3.8 0s-2.2.1-3 .1S94 106.8 94 107.2L94 107.2zM142.7 118h12.4c.6 0 1.2.4 1.3 1 .9 2.2 1.4 4.6 1.6 7 4.6-5.9 9.7-10 17.2-10 .4-.1.8.2.8.6 0 .1 0 .1 0 .2v14.3c0 .6-.3.9-.9.8-6.9-.4-11.8.2-15.7 4.2-.8.7-1.3 1.7-1.3 2.7v36.3c0 .6-.3.8-.9.8h-12c-.7 0-1.1-.3-1.1-.9v-40c0-9.6-1.3-12.2-2-16.2C141.9 118.3 142.2 118 142.7 118z"/></svg>