<svg xmlns="http://www.w3.org/2000/svg" enable-background="new 0 0 256 256" viewBox="0 0 256 256"><path fill="#31a8ff" d="M105.7,24.1H28c-11,0-20,9-20,20v20h146L119.8,30C116.1,26.3,111,24.1,105.7,24.1z"/><path fill="#001e36" d="M228,232.1H28c-11,0-20-9-20-20v-152h220c11,0,20,9,20,20v132C248,223.2,239,232.1,228,232.1z"/><path fill="#31a8ff" d="M138.7 119.9h12c.6 0 1.1.4 1.3.9.9 1.7 1.4 3.6 1.5 5.6 4.5-5.9 10.1-8.5 17.6-8.5.4-.1.8.2.8.6 0 .1 0 .1 0 .2V129c0 .6-.3.9-.9.8-6.3-.4-12.4 1.7-17 6-1.4 1.4-2.1 3.3-2 5.2v34c0 .6-.3.8-.9.8h-10c-.7 0-1.1-.3-1.1-.9v-40.1c0-9.5-1.3-10.3-2-14.2C137.9 120.2 138.2 119.9 138.7 119.9zM128.8 175.9H85.1c-.7 0-1.1-.4-1.1-1.2V96.9c-.1-.5.2-.9.7-1 .1 0 .2 0 .3 0h12.3c.5 0 .7.3.7.8v67.2h33.1c.7 0 1 .3.9 1l-2 10C129.9 175.5 129.4 176 128.8 175.9z"/></svg>