<svg xmlns="http://www.w3.org/2000/svg" enable-background="new 0 0 256 256" viewBox="0 0 256 256"><path fill="#001e36" d="M222,70.4V220c0,12.7-10.3,23-23,23H57c-12.7,0-23-10.3-23-23V36c0-12.7,10.3-23,23-23h107.5
	c6.1,0,12,2.4,16.3,6.7l34.5,34.4C219.6,58.5,222,64.3,222,70.4z"/><path fill="#31a8ff" d="M166.1,18c3.7,0,7.3,1.5,9.9,4.1L211.9,58c2.6,2.6,4.1,6.2,4.1,9.9V224c0,7.7-6.3,14-14,14H54
	c-7.7,0-14-6.3-14-14V32c0-7.7,6.3-14,14-14H166.1 M166.1,8H54C40.7,8,30,18.7,30,32v192c0,13.3,10.7,24,24,24h148
	c13.3,0,24-10.7,24-24V67.9c0-6.4-2.5-12.5-7-17L183,15C178.5,10.5,172.4,8,166.1,8L166.1,8z"/><path fill="#31a8ff" d="M138.7 82h12c.6 0 1.1.4 1.3.9.9 1.7 1.4 3.6 1.5 5.6 4.5-5.9 10.1-8.5 17.6-8.5.4-.1.8.2.8.6 0 .1 0 .1 0 .2v10.3c0 .6-.3.9-.9.8-6.3-.4-12.4 1.7-17 6-1.4 1.4-2.1 3.3-2 5.2v34c0 .6-.3.8-.9.8h-10c-.7 0-1.1-.3-1.1-.9V97c0-9.5-1.3-10.3-2-14.2C137.9 82.3 138.2 82 138.7 82zM128.8 138H85.1c-.7 0-1.1-.4-1.1-1.2V59c-.1-.5.2-.9.7-1 .1 0 .2 0 .3 0h12.3c.5 0 .7.3.7.8V126h33.1c.7 0 1 .3.9 1l-2 10C129.9 137.6 129.4 138 128.8 138z"/><path fill="#fff" d="M111 207.5l-.5 4.6c-.1 1.1-1 1.9-2.1 1.8-.7 0-1.6 0-2.4 0-10.6.4-17.5-4.5-19.2-13.5-2-10.4 2.4-19.4 11.2-22.2 2.7-.9 5.7-1.2 8.5-1.1 2.1.1 5.1.6 5.1.6s.4 2.3-.1 6.1c-5.3-.8-11.2-2.1-14.9 2.9-1.9 2.6-3.1 6.3-3.1 9.6C93.6 205.2 99 208.5 111 207.5zM152.1 184.1c-4.1 0-7.2 0-10.9 0 .4-2.3.7-4.1 1-6 8.9 0 17.6 0 26.8 0 .2 1.8.4 3.5.6 5.8-3.5 0-6.6 0-10.5 0 0 10.3 0 20.1 0 30.1-2.6 0-4.5 0-7 0C152.1 204.2 152.1 194.5 152.1 184.1zM135.3 204h-11.2l-2.9 9.5c0 .3-.2.5-.5.4 0 0 0 0 0 0h-5.2c-.4 0-.5-.2-.4-.6l10.1-32.1c.3-1 .4-2 .4-3 0-.2.1-.3.2-.3 0 0 .1 0 .1 0h7.4c.2 0 .3.1.4.3l11.3 35.2c.1.3 0 .5-.3.5h-5.9c-.2 0-.4-.1-.5-.3L135.3 204zM125.4 198h8.7c-.2.1-4.1-13.3-4.4-14.4h0C129.3 185.5 127.8 190.6 125.4 198z"/></svg>