<svg xmlns="http://www.w3.org/2000/svg" enable-background="new 0 0 256 256" viewBox="0 0 256 256"><path fill="#f36" d="M105.7,24.1H28c-11,0-20,9-20,20v20h146L119.8,30C116.1,26.3,111,24.1,105.7,24.1z"/><path fill="#49021f" d="M228,232.1H28c-11,0-20-9-20-20v-152h220c11,0,20,9,20,20v132C248,223.2,239,232.1,228,232.1z"/><path fill="#f36" d="M104 95v77.9c0 .8-.3 1.1-1 1.1H91c-.7 0-1-.4-1-1.1V95c-.1-.5.3-.9.7-1 .1 0 .2 0 .3 0h12.1C103.7 94 104 94.3 104 95zM142.4 176c-8.7 0-15.4-2.5-20.6-7.4s-7.8-12.2-7.8-21.8c0-8.8 2.8-16 8.4-21.6 5.8-6 13.8-9.3 22.1-9.2 1.8 0 3.7.2 5.5.6V90.7c0-.3.2-.7.5-.7.1 0 .1 0 .2 0h12.7c.4 0 .6.2.6.7v71.6c0 3 1.8 5.6 2 7.7.1.4-.2.9-.6 1.1C158.2 174.4 150.4 176.1 142.4 176zM150 164.4v-36.3c-.5-.9-3.1-2.1-5.7-2.1-4.4-.1-8.7 1.8-11.6 5.1-3 3.4-4.7 8.9-4.7 15.1 0 6.6 1.8 11.6 4.7 14.7 2.8 3.2 6.9 5.1 11.1 5.1C146.6 166 149.4 165.1 150 164.4z"/></svg>