<svg xmlns="http://www.w3.org/2000/svg" enable-background="new 0 0 256 256" viewBox="0 0 256 256"><path fill="#99f" d="M105.7,24.1H28c-11,0-20,9-20,20v20h146L119.8,30C116.1,26.3,111,24.1,105.7,24.1z"/><path fill="#00005b" d="M228,232.1H28c-11,0-20-9-20-20v-152h220c11,0,20,9,20,20v132C248,223.2,239,232.1,228,232.1z"/><path fill="#99f" d="M83.4 174H70.8c-.6 0-.8-.3-.8-1V95.3c0-.7.2-1.1.7-1.1C74.4 94 82.1 94 93.9 94c9.3 0 16.5 2 21.7 5.9s7.8 9.6 7.7 16.9c.1 4.7-1.4 9.3-4.3 13-3 3.6-6.9 6.3-11.3 7.9 2.3 2.7 6.3 8.4 12.2 17 5.9 8.6 9.8 14.6 11.7 18 .6.8.5 1.2-.4 1.2H116c-.6 0-1.2-.2-1.6-.7-1-1.4-2.6-4-4.8-7.6-2.3-3.6-4.8-7.7-7.5-12.2-2.8-4.5-4.7-7.6-5.8-9.4-.8-1.4-2.4-2.2-4-2h-8v31c.1.5-.2.9-.7 1C83.5 174 83.5 174 83.4 174zM84.4 130.4h9.2c5 0 8.8-1 11.3-3.4 2.5-2.5 3.9-6 3.8-9.6 0-4-1.3-7.1-3.9-9.3s-6.3-3.3-11.2-3.3c-4.6 0-7.6.1-9.2.2C84.4 105 84.4 130.4 84.4 130.4zM184 118.8v44.5c0 6.2.8 6.9 2 9.9.1.3 0 .5-.1.6-.3.1-.5.2-.8.2h-12.5c-.5.1-1-.2-1.2-.7-.4-.9-.6-1.8-.7-2.8-4 3.7-9.2 5.5-15.6 5.5-12.7 0-19.1-7.1-19.1-21.3v-35.8c-.1-.5.2-.9.7-.9.1 0 .2 0 .3 0h12.2c.6 0 .8.3.8.9v34.8c0 7.5 3.5 10.2 9.7 10.2 4 0 7.8-.4 10.3-3.3v-41.7c-.1-.5.2-.9.7-.9.1 0 .2 0 .2 0H183C183.7 118 184 118.3 184 118.8z"/></svg>