<svg xmlns="http://www.w3.org/2000/svg" enable-background="new 0 0 256 256" viewBox="0 0 256 256"><path fill="#99f" d="M105.7,24.1H28c-11,0-20,9-20,20v20h146L119.9,30C116.1,26.3,111,24.1,105.7,24.1z"/><path fill="#00005b" d="M228,232.1H28c-11,0-20-9-20-20v-152h220c11,0,20,9,20,20v132C248,223.2,239,232.1,228,232.1z"/><path fill="#99f" d="M110.5 156.9H82.1l-5.8 17.9c-.2.7-.8 1.1-1.5 1.1H60.4c-.8 0-1.1-.5-.9-1.4l24.7-70.4c.2-.7.5-1.4.7-2.3.3-1.6.5-3.3.5-5-.1-.4.2-.8.6-.9.1 0 .1 0 .2 0h19.5c.6 0 .9.2 1 .6l27.8 78.1c.2.8 0 1.2-.7 1.2h-16c-.6.1-1.1-.3-1.2-.9L110.5 156.9zM86.6 141.8H106c-.5-1.6-1.1-3.5-1.7-5.5s-1.3-4.2-2.1-6.6l-2.2-7c-.7-2.3-1.4-4.6-2-6.8s-1.2-4.2-1.7-6h-.1c-.7 3.3-1.6 6.6-2.6 9.8l-3.5 11.3C88.9 134.9 87.7 138.5 86.6 141.8zM143.2 174.8v-45.3c0-1.4 0-2.9-.1-4.7s-.1-3.3-.2-4.9-.2-3-.2-3.9c-.1-.3-.1-.5.1-.7.2-.2.5-.3.7-.2h12.3c.4 0 .8.1 1.2.2.3.2.6.5.6.9l.6 1.7c.2.8.4 1.6.4 2.5 2.4-2.1 5.1-3.7 8.1-4.7 3-1 6.1-1.6 9.2-1.5 2.4 0 4.9.4 7.2 1.2 5.4 1.7 9.7 5.9 11.6 11.3 1.2 3.2 1.7 7.2 1.7 12.2v36.1c0 .7-.3 1.1-1 1.1l-14.4.1c-.6.1-1.1-.3-1.2-.9 0-.1 0-.2 0-.3v-34.2c0-2.3-.5-4.6-1.5-6.6-.7-1.5-1.7-2.9-3.1-3.8-1.6-1-3.4-1.4-5.2-1.4-2 0-3.9.3-5.8 1-1.7.7-3.2 1.7-4.5 2.9v42.1c0 .7-.3 1.1-1 1.1h-14.5c-.5.1-1-.3-1.1-.8C143.2 174.9 143.2 174.8 143.2 174.8z"/></svg>