<svg xmlns="http://www.w3.org/2000/svg" enable-background="new 0 0 256 256" viewBox="0 0 256 256"><path fill="#99f" d="M105.7,24.1H28c-11,0-20,9-20,20v20h146L119.9,30C116.1,26.3,111,24.1,105.7,24.1z"/><path fill="#00005b" d="M228,232.1H28c-11,0-20-9-20-20v-152h220c11,0,20,9,20,20v132C248,223.2,239,232.1,228,232.1z"/><path fill="#99f" d="M190 115.9v46.6c0 6.5.2 7.9 1.4 11 .1.3 0 .6-.1.7-.3.1-.6.2-.9.2h-12.9c-.5.1-1.1-.2-1.2-.7-.4-1.1-.7-2.3-.7-3.5-4.2 3.8-9.6 5.8-16.2 5.8-13.2 0-19.8-7.4-19.8-22.3v-37.5c-.1-.5.3-.9.7-1 .1 0 .2 0 .2 0h13c.6 0 .9.3.9 1v36.6c0 7.9 3.4 11.4 9.8 11.4 4.2 0 8.4-1.2 11-4.2v-43.8c-.1-.5.3-.9.7-1 .1 0 .2 0 .2 0H189C189.6 115.1 190 115.4 190 115.9zM112.6 155.1H86.1l-6.9 19.8c-.1.7-.5 1-1.2 1H65.5c-.8 0-1.1-.4-.9-1.2l24.1-71.5c.7-2.2 1-4.4 1-6.7 0-.4.2-.7.6-.7.1 0 .1 0 .2 0H108c.5 0 .8.2.9.6l26.9 78.4c.3.7 0 1.1-.6 1.1h-14c-.5 0-1-.3-1.2-.7L112.6 155.1zM89 141.8h20.7c-.5-1.1-9.8-31.1-10.5-33.6h-.1L89 141.8z"/></svg>